<?xml version="1.0" encoding="utf-8"?>
<!-- Generator: Adobe Illustrator 22.1.0, SVG Export Plug-In . SVG Version: 6.00 Build 0)  -->
<svg version="1.1" id="Camada_1" xmlns="http://www.w3.org/2000/svg" xmlns:xlink="http://www.w3.org/1999/xlink" x="0px" y="0px"
	 viewBox="0 0 250.2 346.4" style="enable-background:new 0 0 250.2 346.4;" xml:space="preserve">
<style type="text/css">
	.st0{fill:#1C1510;}
	.st1{fill:none;stroke:#1E1E1E;stroke-width:5.6693;stroke-miterlimit:10;}
	.st2{fill:none;stroke:#FFE2B3;stroke-width:8.5039;stroke-linecap:round;stroke-linejoin:round;stroke-miterlimit:10;}
	.st3{fill:#FAB852;}
	.st4{clip-path:url(#SVGID_2_);}
	.st5{fill:#F77F29;}
	.st6{fill:#23211E;}
</style>
<g>
	<path class="st0" d="M51.2,187H63c7.2,0,10.8,3.6,10.8,10.7v16c0,5.3-2.6,8.7-7.7,10.2c-1.2,0.4-3,0.5-5.4,0.5h-1.3V238h-8.1V187z
		 M59.3,194.2v23h1.9c1.1,0,1.9-0.1,2.3-0.2c1.5-0.5,2.2-1.6,2.2-3.3v-16c0-2.3-1.2-3.5-3.5-3.5H59.3z"/>
	<path class="st0" d="M94.3,215.3v-18.4c0-2.3-1.2-3.5-3.5-3.5h-0.1c-2.3,0-3.5,1.2-3.5,3.5v12.5h-8.1v-12.5
		c0-7.1,3.9-10.7,11.6-10.7c7.7,0,11.6,3.6,11.6,10.7V238h-7.2l-0.6-3.1c-1.6,2.6-4.1,4-7.3,4c-2.6,0-4.6-0.9-6-2.7
		c-1.3-1.8-2-4-2-6.6C79.4,220.9,84.4,216.2,94.3,215.3z M85.1,184l-3.9-1.9l1-1.8c1.3-2.3,2.9-3.6,5-3.7h0.2c1.3,0,2.9,0.6,4.9,1.7
		c1,0.6,1.8,0.8,2.4,0.8c0.5,0,0.9-0.2,1.2-0.6l1.2-1.7l3.7,2.2l-1.2,1.8c-1.2,1.8-2.7,2.7-4.5,2.8H95c-1.3,0-2.9-0.6-4.9-1.7
		c-1.3-0.7-2-1.1-2.3-1.1h-0.1c-0.5,0-1.1,0.5-1.6,1.4L85.1,184z M94.3,222.3c-4.6,1-6.9,3.2-6.9,6.5c0,2.2,0.5,3.3,1.6,3.3
		c3.5-0.2,5.2-2.6,5.2-7.1V222.3z"/>
	<path class="st0" d="M131.9,228.1c0,7.1-3.9,10.7-11.6,10.7c-7.7,0-11.6-3.6-11.6-10.7v-31.2c0-7.1,3.9-10.7,11.6-10.7
		c7.7,0,11.6,3.6,11.6,10.7V228.1z M123.8,196.9c0-2.3-1.2-3.4-3.5-3.5h-0.1c-2.3,0-3.5,1.2-3.5,3.5v31.2c0,2.3,1.2,3.5,3.5,3.5
		c2.4,0,3.5-1.2,3.5-3.5V196.9z"/>
	<path class="st0" d="M155.6,238h-8.1v-41.1c0-7.1,3.9-10.7,11.6-10.7c7.7,0,11.6,3.6,11.6,10.7V238h-8.1v-41.1
		c0-2.3-1.2-3.4-3.5-3.5h-0.1c-2.3,0-3.5,1.2-3.5,3.5V238z"/>
	<path class="st0" d="M192.1,215.3v-18.4c0-2.3-1.2-3.5-3.5-3.5h-0.1c-2.3,0-3.5,1.2-3.5,3.5v12.5H177v-12.5
		c0-7.1,3.9-10.7,11.6-10.7c7.7,0,11.6,3.6,11.6,10.7V238H193l-0.6-3.1c-1.6,2.6-4.1,4-7.3,4c-2.6,0-4.6-0.9-6-2.7
		c-1.3-1.8-2-4-2-6.6C177.2,220.9,182.2,216.2,192.1,215.3z M192.1,222.3c-4.6,1-6.9,3.2-6.9,6.5c0,2.2,0.5,3.3,1.6,3.3
		c3.5-0.2,5.2-2.6,5.2-7.1V222.3z"/>
	<path class="st0" d="M78.7,296c0,8.5-4.6,12.7-13.7,12.7c-9.1,0-13.7-4.2-13.7-12.7v-36.9c0-8.4,4.6-12.7,13.7-12.7
		c9.2,0,13.7,4.2,13.7,12.7v14.8h-9.5v-14.8c0-2.7-1.4-4.1-4.2-4.1h-0.1c-2.7,0-4.1,1.4-4.1,4.1V296c0,2.7,1.4,4.1,4.2,4.1
		c2.8,0,4.2-1.4,4.2-4.1v-9.8h9.5V296z"/>
	<path class="st0" d="M103.6,280.8v-21.7c0-2.7-1.4-4.1-4.1-4.1h-0.1c-2.8,0-4.2,1.4-4.2,4.1v14.8h-9.5v-14.8
		c0-8.4,4.6-12.7,13.7-12.7c9.1,0,13.7,4.2,13.7,12.7v48.6h-8.5L104,304c-1.9,3.1-4.8,4.7-8.6,4.7c-3.1,0-5.4-1.1-7-3.2
		c-1.6-2.1-2.4-4.7-2.4-7.8C86,287.5,91.9,281.9,103.6,280.8z M103.6,289.1c-5.4,1.2-8.1,3.8-8.1,7.6c0,2.6,0.6,3.9,1.9,3.9
		c4.1-0.3,6.2-3.1,6.2-8.4V289.1z"/>
	<path class="st0" d="M121.5,247.4h9.5v60.4h-9.5V247.4z"/>
	<path class="st0" d="M152.2,285.3l6.7-37.9h9.6l-7.8,40.3l7.8,20h-10.3l-6-18.7l-6,18.7h-10.3l7.8-20l-7.8-40.3h9.6L152.2,285.3z"
		/>
	<path class="st0" d="M190.5,280.8v-21.7c0-2.7-1.4-4.1-4.1-4.1h-0.1c-2.8,0-4.2,1.4-4.2,4.1v14.8h-9.5v-14.8
		c0-8.4,4.6-12.7,13.7-12.7c9.1,0,13.7,4.2,13.7,12.7v48.6h-8.5l-0.7-3.7c-1.9,3.1-4.8,4.7-8.6,4.7c-3.1,0-5.4-1.1-7-3.2
		c-1.6-2.1-2.4-4.7-2.4-7.8C172.8,287.5,178.7,281.9,190.5,280.8z M190.5,289.1c-5.4,1.2-8.1,3.8-8.1,7.6c0,2.6,0.6,3.9,1.9,3.9
		c4.1-0.3,6.2-3.1,6.2-8.4V289.1z"/>
</g>
<polyline class="st1" points="179.6,22.7 235.6,22.7 235.6,329.7 16.6,329.7 16.6,22.7 70.6,22.7 "/>
<line class="st2" x1="39.6" y1="65.7" x2="210.6" y2="65.7"/>
<g>
	<line class="st2" x1="39.6" y1="103.7" x2="53.9" y2="103.7"/>
	<line class="st2" x1="39.6" y1="84.7" x2="67.3" y2="84.7"/>
	<line class="st2" x1="39.6" y1="122.7" x2="51.4" y2="122.7"/>
	<line class="st2" x1="39.6" y1="141.7" x2="61.6" y2="141.7"/>
</g>
<g>
	<line class="st2" x1="210.3" y1="103.7" x2="195.9" y2="103.7"/>
	<line class="st2" x1="210.3" y1="84.7" x2="182.6" y2="84.7"/>
	<line class="st2" x1="210.3" y1="122.7" x2="198.4" y2="122.7"/>
	<line class="st2" x1="210.3" y1="141.7" x2="188.3" y2="141.7"/>
</g>
<line class="st2" x1="39.6" y1="160.7" x2="210.6" y2="160.7"/>
<line class="st2" x1="39.6" y1="46.7" x2="210.6" y2="46.7"/>
<g>
	<g>
		<ellipse class="st3" cx="125.2" cy="119" rx="65.1" ry="32.8"/>
	</g>
	<g>
		<defs>
			<path id="SVGID_1_" d="M60.1,119.6c0,0-1.4-30.9,46.5-41.5c47.7-10.5,82.4,19.2,83,40.9c0.6,19.9-21.1,29.7-63.2,31
				C84.3,151.2,58.3,133.9,60.1,119.6z"/>
		</defs>
		<clipPath id="SVGID_2_">
			<use xlink:href="#SVGID_1_"  style="overflow:visible;"/>
		</clipPath>
		<g class="st4">
			<path class="st5" d="M58.9,103.5c0,0,9.9,32.2,68.2,27.3c49.6-4.2,92.9-31,92.9-31l-2.5,49.6l-60.7,11.2l-92.9-5L49,140.7
				L58.9,103.5z"/>
		</g>
	</g>
	<g>
		<path class="st6" d="M122.1,152.7c-30.8,0-50.6-9.6-59.1-19c-4.1-4.6-6-9.5-5.5-14.2c-0.1-3.3,0.8-33.4,48.5-44
			C131.2,70,156,74.9,174,88.9c11.2,8.7,18,19.9,18.3,30c0.6,21.3-20.9,32.4-65.8,33.7C125,152.7,123.5,152.7,122.1,152.7z
			 M126.3,78.6c-6.3,0-12.7,0.7-19.1,2.1c-44.9,9.9-44.4,37.7-44.4,38.8l0,0.2l0,0.2c-0.4,3.2,1,6.7,4.1,10.2
			c7.7,8.5,27.9,18.1,59.5,17.2c41.3-1.2,61.2-10.5,60.6-28.3c-0.2-8.5-6.3-18.3-16.3-26C158.5,83.6,143,78.6,126.3,78.6z"/>
	</g>
	<g>
		<path class="st6" d="M97.3,106.2c-0.5,0-0.9-0.1-1.4-0.4c-1.2-0.7-1.7-2.4-0.9-3.6l14.9-24.8c0.7-1.2,2.4-1.7,3.6-0.9
			c1.2,0.7,1.7,2.4,0.9,3.6l-14.9,24.8C99.1,105.7,98.2,106.2,97.3,106.2z"/>
	</g>
	<g>
		<path class="st6" d="M148.1,103.7c-0.4,0-0.9-0.1-1.3-0.3c-1.3-0.7-1.7-2.3-1-3.6l9.9-17.3c0.7-1.3,2.3-1.7,3.6-1
			c1.3,0.7,1.7,2.3,1,3.6l-9.9,17.3C149.9,103.2,149,103.7,148.1,103.7z"/>
	</g>
	<g>
		<path class="st6" d="M114.7,118.5c-0.5,0-0.9-0.1-1.4-0.4c-1.2-0.7-1.7-2.4-0.9-3.6l22.3-37.2c0.7-1.2,2.4-1.7,3.6-0.9
			c1.2,0.7,1.7,2.4,0.9,3.6l-22.3,37.2C116.4,118.1,115.6,118.5,114.7,118.5z"/>
	</g>
	<g>
		<circle class="st5" cx="151.9" cy="117.4" r="4.7"/>
	</g>
	<g>
		<circle class="st5" cx="168.2" cy="112" r="4.7"/>
	</g>
</g>
</svg>
